<svg width="293" height="51" viewBox="0 0 293 51" fill="none" xmlns="http://www.w3.org/2000/svg">
<path d="M0.87 0.999997H12.49C16.4567 0.999997 19.35 1.93333 21.17 3.8C22.99 5.62 23.9 8.44333 23.9 12.27V14.23C23.9 16.75 23.48 18.8033 22.64 20.39C21.8467 21.9767 20.61 23.12 18.93 23.82V23.96C22.7567 25.2667 24.67 28.6733 24.67 34.18V38.38C24.67 42.16 23.6667 45.0533 21.66 47.06C19.7 49.02 16.8067 50 12.98 50H0.87V0.999997ZM11.58 20.95C13.12 20.95 14.2633 20.5533 15.01 19.76C15.8033 18.9667 16.2 17.6367 16.2 15.77V13.04C16.2 11.2667 15.8733 9.98333 15.22 9.19C14.6133 8.39667 13.6333 8 12.28 8H8.57V20.95H11.58ZM12.98 43C14.3333 43 15.3367 42.65 15.99 41.95C16.6433 41.2033 16.97 39.9433 16.97 38.17V33.9C16.97 31.66 16.5733 30.12 15.78 29.28C15.0333 28.3933 13.7733 27.95 12 27.95H8.57V43H12.98ZM38.6208 0.999997H59.6208V8H46.3208V20.95H56.8908V27.95H46.3208V43H59.6208V50H38.6208V0.999997ZM73.5005 0.999997H94.5005V8H81.2005V20.95H91.7705V27.95H81.2005V43H94.5005V50H73.5005V0.999997ZM108.38 0.999997H119.79C123.757 0.999997 126.65 1.93333 128.47 3.8C130.29 5.62 131.2 8.44333 131.2 12.27V15.28C131.2 20.3667 129.52 23.5867 126.16 24.94V25.08C128.027 25.64 129.333 26.7833 130.08 28.51C130.873 30.2367 131.27 32.5467 131.27 35.44V44.05C131.27 45.45 131.317 46.5933 131.41 47.48C131.503 48.32 131.737 49.16 132.11 50H124.27C123.99 49.2067 123.803 48.46 123.71 47.76C123.617 47.06 123.57 45.8 123.57 43.98V35.02C123.57 32.78 123.197 31.2167 122.45 30.33C121.75 29.4433 120.513 29 118.74 29H116.08V50H108.38V0.999997ZM118.88 22C120.42 22 121.563 21.6033 122.31 20.81C123.103 20.0167 123.5 18.6867 123.5 16.82V13.04C123.5 11.2667 123.173 9.98333 122.52 9.19C121.913 8.39667 120.933 8 119.58 8H116.08V22H118.88ZM146.063 0.999997H157.053L161.953 36.07H162.093L166.993 0.999997H177.983V50H170.703V12.9H170.563L164.963 50H158.523L152.923 12.9H152.783V50H146.063V0.999997ZM204.309 50.7C200.529 50.7 197.635 49.6267 195.629 47.48C193.622 45.3333 192.619 42.3 192.619 38.38V12.62C192.619 8.7 193.622 5.66666 195.629 3.52C197.635 1.37333 200.529 0.299997 204.309 0.299997C208.089 0.299997 210.982 1.37333 212.989 3.52C214.995 5.66666 215.999 8.7 215.999 12.62V38.38C215.999 42.3 214.995 45.3333 212.989 47.48C210.982 49.6267 208.089 50.7 204.309 50.7ZM204.309 43.7C206.969 43.7 208.299 42.09 208.299 38.87V12.13C208.299 8.91 206.969 7.3 204.309 7.3C201.649 7.3 200.319 8.91 200.319 12.13V38.87C200.319 42.09 201.649 43.7 204.309 43.7ZM230.656 0.999997H242.066C246.033 0.999997 248.926 1.93333 250.746 3.8C252.566 5.62 253.476 8.44333 253.476 12.27V15.28C253.476 20.3667 251.796 23.5867 248.436 24.94V25.08C250.303 25.64 251.609 26.7833 252.356 28.51C253.149 30.2367 253.546 32.5467 253.546 35.44V44.05C253.546 45.45 253.593 46.5933 253.686 47.48C253.779 48.32 254.013 49.16 254.386 50H246.546C246.266 49.2067 246.079 48.46 245.986 47.76C245.893 47.06 245.846 45.8 245.846 43.98V35.02C245.846 32.78 245.473 31.2167 244.726 30.33C244.026 29.4433 242.789 29 241.016 29H238.356V50H230.656V0.999997ZM241.156 22C242.696 22 243.839 21.6033 244.586 20.81C245.379 20.0167 245.776 18.6867 245.776 16.82V13.04C245.776 11.2667 245.449 9.98333 244.796 9.19C244.189 8.39667 243.209 8 241.856 8H238.356V22H241.156ZM274.288 0.999997H284.718L292.698 50H284.998L283.598 40.27V40.41H274.848L273.448 50H266.308L274.288 0.999997ZM282.688 33.76L279.258 9.54H279.118L275.758 33.76H282.688Z" fill="white"/>
</svg>
