<svg width="71" height="49" viewBox="0 0 71 49" fill="none" xmlns="http://www.w3.org/2000/svg">
<path d="M12.42 -3.33786e-06H0.8V49H12.91C20.61 49 24.6 44.94 24.6 37.38V33.39C24.6 28.21 22.99 24.57 18.86 22.96V22.82C22.29 21.21 23.83 18.06 23.83 13.02V11.27C23.83 3.71 20.4 -3.33786e-06 12.42 -3.33786e-06ZM11.93 26.95C15.43 26.95 16.9 28.35 16.9 32.9V37.17C16.9 40.81 15.5 42 12.91 42H8.5V26.95H11.93ZM12.21 7C14.94 7 16.13 8.54 16.13 12.04V14.77C16.13 18.69 14.38 19.95 11.51 19.95H8.5V7H12.21ZM49.3275 -3.33786e-06H38.6175V49H45.3375V14.35H45.4775L51.0775 49H58.3575L63.5375 13.86H63.6775V49H70.9575V-3.33786e-06H60.2475L55.0675 34.79H54.9275L49.3275 -3.33786e-06Z" fill="black"/>
</svg>
